<?xml version="1.0" encoding="utf-8"?>
<!-- Generator: Adobe Illustrator 24.3.0, SVG Export Plug-In . SVG Version: 6.00 Build 0)  -->
<svg version="1.1"
	 id="Camada_1" xmlns:cc="http://creativecommons.org/ns#" xmlns:dc="http://purl.org/dc/elements/1.1/" xmlns:inkscape="http://www.inkscape.org/namespaces/inkscape" xmlns:rdf="http://www.w3.org/1999/02/22-rdf-syntax-ns#" xmlns:sodipodi="http://sodipodi.sourceforge.net/DTD/sodipodi-0.dtd" xmlns:svg="http://www.w3.org/2000/svg"
	 xmlns="http://www.w3.org/2000/svg" xmlns:xlink="http://www.w3.org/1999/xlink" x="0px" y="0px" viewBox="0 0 55.7 55.8"
	 style="enable-background:new 0 0 55.7 55.8;" xml:space="preserve">
<style type="text/css">
	.st0{fill:#FFFDFD;}
</style>
<g transform="translate(0,-952.36218)">
	<path class="st0" d="M27.8,953.3c-2.2,0-4,1.8-4,4v19h-19c-2.2,0-4,1.8-4,4s1.8,4,4,4h19v19c0,2.2,1.8,4,4,4c2.2,0,4-1.8,4-4v-19
		h19c2.2,0,4-1.8,4-4s-1.8-4-4-4h-19v-19C31.8,955.1,30,953.3,27.8,953.3L27.8,953.3z"/>
</g>
</svg>
