<?xml version="1.0" encoding="utf-8"?>
<!-- Generator: Adobe Illustrator 24.3.0, SVG Export Plug-In . SVG Version: 6.00 Build 0)  -->
<svg version="1.1" id="Camada_1" xmlns="http://www.w3.org/2000/svg" xmlns:xlink="http://www.w3.org/1999/xlink" x="0px" y="0px"
	 viewBox="0 0 56.2 56.2" style="enable-background:new 0 0 56.2 56.2;" xml:space="preserve">
<style type="text/css">
	.st0{fill-rule:evenodd;clip-rule:evenodd;fill:#FFFDFD;}
</style>
<path class="st0" d="M34.4,28.1l19,19c1.8,1.8,1.8,4.6,0,6.3s-4.6,1.8-6.3,0l-19-19l-19,19c-1.8,1.8-4.6,1.8-6.3,0s-1.8-4.6,0-6.3
	l19-19l-19-19C1,7.3,1,4.5,2.8,2.8s4.6-1.8,6.3,0l19,19l19-19c1.8-1.8,4.6-1.8,6.3,0s1.8,4.6,0,6.3L34.4,28.1z"/>
</svg>
