<svg width="15" height="15" viewBox="0 0 15 15" fill="none" xmlns="http://www.w3.org/2000/svg">
<path d="M0.5 9.50025L0.145996 9.14625L0 9.29325V9.50025H0.5ZM9.5 0.500254L9.854 0.14625C9.658 -0.04875 9.342 -0.04875 9.146 0.14625L9.5 0.500254ZM14.5 5.50025L14.854 5.85426C15.049 5.65826 15.049 5.34225 14.854 5.14625L14.5 5.50025ZM5.5 14.5003V15.0003H5.707L5.854 14.8543L5.5 14.5003ZM0.5 14.5003H0C0 14.7763 0.224 15.0003 0.5 15.0003V14.5003ZM0.854004 9.85426L9.854 0.854258L9.146 0.14625L0.145996 9.14625L0.854004 9.85426ZM9.146 0.854258L14.146 5.85426L14.854 5.14625L9.854 0.14625L9.146 0.854258ZM14.146 5.14625L5.146 14.1462L5.854 14.8543L14.854 5.85426L14.146 5.14625ZM5.5 14.0003H0.5V15.0003H5.5V14.0003ZM1 14.5003V9.50025H0V14.5003H1ZM6.146 3.85426L11.146 8.85426L11.854 8.14625L6.854 3.14625L6.146 3.85426ZM8 15.0003H15V14.0003H8V15.0003Z" fill="#828282"/>
</svg>
