<?xml version="1.0" encoding="utf-8"?>
<!-- Generator: Adobe Illustrator 24.3.0, SVG Export Plug-In . SVG Version: 6.00 Build 0)  -->
<svg version="1.1" xmlns="http://www.w3.org/2000/svg" xmlns:xlink="http://www.w3.org/1999/xlink" x="0px" y="0px"
	 viewBox="0 0 100 99.2" style="enable-background:new 0 0 100 99.2;" xml:space="preserve">
<style type="text/css">
	.st0{fill:#FFFDFD;}
</style>
<g id="Camada_2">
</g>
<g id="Camada_1">
	<path class="st0" d="M50,8C26.8,8,8,26.8,8,50s18.8,42,42,42s42-18.8,42-42C92,26.8,73.2,8,50,8z M80.6,33c0,0-3.6,0-4.6,0.1
		c-2.5-3.8-5.3-6.6-9.7-9.5c-0.4-0.3-0.4-4.8-0.4-4.8C72.1,22,77.2,26.9,80.6,33z M42.8,12.7c2.3-0.4,4.7-0.7,7.2-0.7
		c2.7,0,5.3,0.3,7.9,0.8c0.8,2.6,1.2,5.6,1.2,8.7c0,2.9-0.4,5.6-1,8c-2.5-1-5.2-1.5-8.1-1.5c-2.6,0-5.1,0.5-7.5,1.3
		c-0.6-2.4-0.9-5-0.9-7.8C41.6,18.3,42,15.3,42.8,12.7z M29.5,57.8c-2.3,0.6-4.9,0.9-7.6,0.9c-3.3,0-6.4-0.5-9.1-1.3
		C12.3,55,12,52.5,12,50s0.3-5,0.7-7.4c2.7-0.8,5.8-1.3,9.1-1.3c2.7,0,5.3,0.3,7.6,0.9c-0.9,2.4-1.4,5-1.4,7.8S28.5,55.4,29.5,57.8z
		 M57.9,87.2C55.3,87.7,52.7,88,50,88c-2.5,0-4.8-0.2-7.2-0.7c-0.8-2.6-1.2-5.6-1.2-8.8c0-2.8,0.3-5.4,0.9-7.8
		c2.3,0.8,4.8,1.3,7.5,1.3c2.8,0,5.6-0.5,8.1-1.5c0.6,2.4,1,5.2,1,8C59.1,81.6,58.6,84.6,57.9,87.2z M50,68c-9.9,0-18-8.1-18-18
		s8.1-18,18-18s18,8.1,18,18S59.9,68,50,68z M76.2,72.1l-2.7-2.9c0.9-1.1,1.8-2.2,2.6-3.4c2.8,0.3,4.5,0.2,4.5,0.2
		C79.4,68.1,77.7,70.3,76.2,72.1z M78.8,58.7c-2.9,0-5.7-0.4-8.2-1.1c0.9-2.4,1.4-5,1.4-7.7s-0.5-5.3-1.4-7.7
		c2.5-0.7,5.3-1.1,8.2-1.1c3,0,5.9,0.4,8.4,1.1c0.5,2.5,0.8,5,0.8,7.6s-0.3,5.2-0.8,7.6C84.7,58.3,81.8,58.7,78.8,58.7z"/>
	<path class="st0" d="M75,7c9.9,0,18,8.1,18,18c0,2.6-0.6,5.1-1.6,7.4c0.7,1.6,1.3,3.3,1.8,5C95.6,33.8,97,29.6,97,25
		c0-12.1-9.9-22-22-22c-4.6,0-8.8,1.4-12.4,3.8c1.7,0.5,3.4,1.1,5,1.8C69.9,7.6,72.4,7,75,7z"/>
	<path class="st0" d="M8.2,32.4c-1-2.3-1.6-4.7-1.6-7.4c0-9.9,8.1-18,18-18c2.6,0,5.1,0.6,7.4,1.6c1.6-0.7,3.3-1.3,5-1.8
		C33.5,4.4,29.2,3,24.6,3c-12.1,0-22,9.9-22,22c0,4.6,1.4,8.8,3.8,12.4C6.9,35.7,7.5,34,8.2,32.4z"/>
	<path class="st0" d="M91.4,68c1,2.3,1.6,4.7,1.6,7.4c0,9.9-8.1,18-18,18c-2.6,0-5.1-0.6-7.4-1.6c-1.6,0.7-3.3,1.3-5,1.8
		c3.5,2.4,7.8,3.8,12.4,3.8c12.1,0,22-9.9,22-22c0-4.6-1.4-8.8-3.8-12.4C92.7,64.7,92.1,66.4,91.4,68z"/>
	<path class="st0" d="M24.6,93.4c-9.9,0-18-8.1-18-18c0-2.6,0.6-5.1,1.6-7.4c-0.7-1.6-1.3-3.3-1.8-5C4,66.5,2.6,70.8,2.6,75.4
		c0,12.1,9.9,22,22,22c4.6,0,8.8-1.4,12.4-3.8c-1.7-0.5-3.4-1.1-5-1.8C29.8,92.8,27.3,93.4,24.6,93.4z"/>
</g>
</svg>
