<?xml version="1.0" encoding="utf-8"?>
<!-- Generator: Adobe Illustrator 24.3.0, SVG Export Plug-In . SVG Version: 6.00 Build 0)  -->
<svg version="1.1" xmlns="http://www.w3.org/2000/svg" xmlns:xlink="http://www.w3.org/1999/xlink" x="0px" y="0px"
	 viewBox="0 0 100 63.1" style="enable-background:new 0 0 100 63.1;" xml:space="preserve">
<style type="text/css">
	.st0{fill:#FFFDFD;}
</style>
<g id="Camada_2">
</g>
<g id="Camada_1">
	<g>
		<path class="st0" d="M52.4,44.1c-1.8-0.9-4.6-2.6-7.5-4.6c-2.3,0.5-5.1,0-7.9-2.1c-0.7-0.5-1.4-1.1-2.1-1.8
			c-1.7-1.7-3.5-4-5.5-6.5c-0.2-0.2-0.3-0.4-0.5-0.6c-0.5-0.6-0.4-1.6,0.2-2.1c0.7-0.6,1.7-0.5,2.3,0.2c0.2,0.2,0.3,0.4,0.5,0.6
			c2.6,3.2,5,6.3,7,7.7c3.7,2.7,6.6,1.7,8.1-0.1c1.2-1.5,1.6-3.7-0.1-5.2c-2.4-2.2-4.7-5-7-7.8c-2.6-3.2-5.4-6.5-7.8-8.4
			c-1.4-1-4.2-2.3-7.2-3.6c-0.7-0.3-2.1-0.9-2.1-0.9L17,3.4c-0.5-0.5-1.2-0.5-1.6,0L2.8,15.9c-0.5,0.5-0.5,1.2,0,1.6l5.6,5.6
			c2.8,5.9,6.4,12.9,9.3,16.3c5.9,6.9,25.5,12.1,31.4,13.4C55.1,54,57.6,46.7,52.4,44.1z"/>
		<path class="st0" d="M97.2,46l-5.6-5.6c-2.8-5.9-6.4-12.9-9.3-16.3C76.4,17.3,56.7,12,50.8,10.8s-8.5,6.1-3.2,8.7
			c1.8,0.9,4.6,2.6,7.5,4.6c2.3-0.5,5.1,0,7.9,2.1c0.7,0.5,1.4,1.1,2.1,1.8c1.7,1.7,3.5,4,5.5,6.5c0.2,0.2,0.3,0.4,0.5,0.6
			c0.5,0.6,0.4,1.6-0.2,2.1c-0.7,0.6-1.7,0.5-2.3-0.2c-0.2-0.2-0.3-0.4-0.5-0.6c-2.6-3.2-5-6.3-7-7.7C57.4,26,54.5,27,53,28.8
			c-1.2,1.5-1.6,3.7,0.1,5.2c2.4,2.2,4.7,5,7,7.8c2.6,3.2,5.4,6.5,7.8,8.4c1.4,1,4.2,2.3,7.2,3.6c0.7,0.3,2.1,0.9,2.1,0.9l5.6,5.6
			c0.5,0.5,1.2,0.5,1.6,0l12.5-12.5C97.6,47.2,97.6,46.5,97.2,46z"/>
	</g>
</g>
</svg>
