<?xml version="1.0" encoding="utf-8"?>
<!-- Generator: Adobe Illustrator 24.3.0, SVG Export Plug-In . SVG Version: 6.00 Build 0)  -->
<svg version="1.1" id="Camada_1" xmlns="http://www.w3.org/2000/svg" xmlns:xlink="http://www.w3.org/1999/xlink" x="0px" y="0px"
	 viewBox="0 0 508 141" style="enable-background:new 0 0 508 141;" xml:space="preserve">
<style type="text/css">
	.st0{fill:#FEFEFE;}
</style>
<g>
	<path class="st0" d="M173.4,55.5c11.5,0,22.7,0,34.2,0c0-1,0-1.9,0-2.8c0-10.9,0.1-21.9,0-32.8c0-2.1,0.7-2.8,2.8-2.7
		c7.9,0.1,15.8,0.1,23.6,0c2,0,2.8,0.5,2.8,2.7c-0.1,33-0.1,66.1,0,99.1c0,2.2-0.7,2.7-2.8,2.7c-8-0.1-15.9-0.1-23.9,0
		c-2,0-2.6-0.7-2.6-2.6c0.1-11.6,0-23.2,0-34.7c0-1,0-1.9,0-3.2c-0.9-0.1-1.6-0.2-2.4-0.2c-9.7,0-19.5,0.1-29.2-0.1
		c-2.2,0-2.7,0.8-2.6,2.8c0.1,11.7,0,23.3,0.1,35c0,2.2-0.5,3.1-2.9,3c-7.9-0.1-15.8-0.1-23.6,0c-2,0-2.6-0.5-2.6-2.6
		c0.1-33,0.1-66.1,0-99.1c0-2.3,0.8-2.8,2.9-2.8c7.8,0.1,15.6,0.1,23.4,0c2.2,0,2.9,0.7,2.9,2.9c-0.1,10.8,0,21.5,0,32.3
		C173.4,53.3,173.4,54.3,173.4,55.5z"/>
	<path class="st0" d="M327.4,42.6c-1.6,0-2.7,0-3.8,0c-12.5,0-24.9,0-37.4,0c-3.1,0-3.1,0-3.1,3.2c0,2.7,0.1,5.5,0,8.2
		c-0.1,2.1,0.5,2.8,2.7,2.7c10.7-0.1,21.4,0,32.1-0.1c2.4,0,3,0.7,2.9,3c-0.1,6-0.1,12.1,0,18.1c0,2.1-0.6,2.8-2.7,2.7
		c-10.8-0.1-21.5,0-32.3-0.1c-2.2,0-2.8,0.6-2.7,2.7c0.2,3.5,0.2,7.1,0,10.6c-0.1,2.1,0.7,2.5,2.6,2.5c13.3-0.1,26.5,0,39.8-0.1
		c2.4,0,3.2,0.7,3.1,3.1c-0.2,6.7-0.1,13.3,0,20c0,1.8-0.5,2.4-2.3,2.4c-23.3-0.1-46.6-0.1-69.9,0c-1.9,0-2.3-0.8-2.3-2.4
		c0-6,0-12.1,0-18.1c0-26.8,0-53.5,0-80.3c0-3.6,0-3.6,3.7-3.6c22.2,0,44.4,0,66.5,0c2.4,0,3.2,0.7,3.1,3.1
		c-0.2,6.4-0.1,12.9-0.1,19.3C327.4,40.4,327.4,41.3,327.4,42.6z"/>
	<path class="st0" d="M456.6,89.6c0,1.2,0,2.2,0,3.1c0,8.7-0.1,17.4,0,26c0,2.3-0.7,2.9-2.9,2.8c-7.9-0.1-15.8-0.1-23.6,0
		c-2.2,0-2.7-0.7-2.7-2.7c0.1-33,0.1-66.1,0-99.1c0-1.9,0.5-2.7,2.5-2.7c13.9,0.1,27.8,0.1,41.7,0c21.6-0.1,36.7,19,36,38.2
		c-0.6,15.7-11.8,30-26.4,33.4c-2.9,0.7-6,0.8-9.1,0.9C467.2,89.7,462.1,89.6,456.6,89.6z M456.6,64.3c4.9,0,9.3,0,13.7,0
		c3.7,0,6.4-1.7,7.1-5.2c0.6-3.1,0.8-6.4,0.4-9.5c-0.7-4.8-3.6-7-8.5-7c-3.4,0-6.7,0.1-10.1-0.1c-2.2-0.1-2.7,0.8-2.7,2.8
		c0.1,5,0,10.1,0,15.2C456.6,61.7,456.6,62.9,456.6,64.3z"/>
	<path class="st0" d="M341.3,69.3c0-16.3,0-32.6,0-48.9c0-3.2,0-3.2,3.2-3.2c7.5,0,14.9,0,22.4,0c3.5,0,3.5,0,3.5,3.4
		c0,24.2,0,48.4-0.1,72.6c0,2.4,0.6,3.1,3.1,3.1c13.7-0.1,27.3,0,41-0.1c2.3,0,3.2,0.5,3.2,3.1c-0.2,6.6-0.1,13.2,0,19.8
		c0,1.9-0.5,2.7-2.5,2.7c-23.7-0.1-47.4-0.1-71.1,0c-2.3,0-2.6-0.9-2.6-2.9C341.4,102.3,341.3,85.8,341.3,69.3z"/>
	<path class="st0" d="M0.6,71.2c0-22,0-44,0-66.1c0-3.6,0-3.6,3.4-3.6c43.3,0,86.7,0,130,0c3.2,0,3.2,0,3.2,3.1
		c0,44.3,0,88.6,0,132.9c0,2.4-0.6,3.2-3.1,3.2c-43.6-0.1-87.1-0.1-130.7,0c-2.4,0-2.9-0.7-2.9-3C0.7,115.6,0.6,93.4,0.6,71.2z
		 M4.4,137c1.3,0,2.5,0,3.7,0c40.7,0,81.3,0,122,0c3.4,0,3.4,0,3.4-3.4c0-41.7,0-83.4,0-125.1c0-3.3,0-3.3-3.2-3.3c-41,0-82,0-123,0
		c-0.9,0-1.9,0-2.9,0C4.4,49.3,4.4,93,4.4,137z"/>
	<path class="st0" d="M93.9,69c-1.1,2.4-2.3,4.9-3.4,7.3c-4.1,9.1-8.2,18.1-12.2,27.2c-0.6,1.4-1.4,2-2.9,1.9
		c-3.7-0.1-7.4-0.1-11.1,0c-1.8,0.1-2.7-0.6-3.4-2.3C56,92.1,51,81.1,46,70c-0.2-0.5-0.5-0.9-1.1-1.3c0,0.8,0,1.5,0,2.3
		c0,15.8,0,31.7,0.1,47.5c0,2.4-0.6,3.2-3.1,3.1c-7.7-0.2-15.4-0.2-23.1,0c-2.4,0-3-0.8-3-3c0.1-19.7,0-39.4,0-59.1
		c0-13.1,0.1-26.2,0-39.3c0-2.5,0.7-3.2,3.2-3.1c8.7,0.1,17.4,0.1,26,0c1.7,0,2.7,0.5,3.5,2.2c6.5,14.4,13.1,28.8,19.7,43.1
		c0.4,0.9,0.9,1.7,1.6,3.1c1.7-3.6,3.3-6.8,4.7-10c5.7-12.2,11.3-24.5,17-36.7c0.4-0.8,1.7-1.5,2.6-1.5c9-0.1,18,0,27-0.1
		c2.1,0,2.5,0.8,2.5,2.7c-0.1,19,0,38.1,0,57.1c0,13.9-0.1,27.8,0.1,41.7c0,2.4-0.7,3-3,2.9c-7.5-0.1-14.9-0.1-22.4-0.1
		c-3.7,0-3.7,0-3.7-3.6c0-15.4,0-30.9,0-46.3c0-0.9,0-1.7,0-2.6C94.2,69.1,94.1,69,93.9,69z"/>
</g>
</svg>
