<?xml version="1.0" encoding="utf-8"?>
<!-- Generator: Adobe Illustrator 24.3.0, SVG Export Plug-In . SVG Version: 6.00 Build 0)  -->
<svg version="1.1" id="Camada_1" xmlns="http://www.w3.org/2000/svg" xmlns:xlink="http://www.w3.org/1999/xlink" x="0px" y="0px"
	 viewBox="0 0 160 122.4" style="enable-background:new 0 0 160 122.4;" xml:space="preserve">
<style type="text/css">
	.st0{fill:#FFFDFD;}
</style>
<g>
	<path class="st0" d="M14.5,21h132c5.5,0,10-4.5,10-10s-4.5-10-10-10h-132C9,1,4.5,5.5,4.5,11S9,21,14.5,21z"/>
	<path class="st0" d="M147.5,51h-132c-5.5,0-10,4.5-10,10c0,5.5,4.5,10,10,10h132c5.5,0,10-4.5,10-10C157.5,55.5,153,51,147.5,51z"
		/>
	<path class="st0" d="M147.5,101h-132c-5.5,0-10,4.5-10,10s4.5,10,10,10h132c5.5,0,10-4.5,10-10S153,101,147.5,101z"/>
</g>
</svg>
