<?xml version="1.0" encoding="utf-8"?>
<!-- Generator: Adobe Illustrator 24.3.0, SVG Export Plug-In . SVG Version: 6.00 Build 0)  -->
<svg version="1.1" id="Camada_1" xmlns="http://www.w3.org/2000/svg" xmlns:xlink="http://www.w3.org/1999/xlink" x="0px" y="0px"
	 viewBox="0 0 25.9 25" style="enable-background:new 0 0 25.9 25;" xml:space="preserve">
<style type="text/css">
	.st0{fill:#FFFDFD;}
</style>
<desc>Created with Sketch.</desc>
<g>
	<path class="st0" d="M21.8,1.3h-18c-1.7,0-3,1.3-3,3v12.2c0,1.6,1.3,2.8,2.8,2.8h1l0.8,4.2c0.1,0.8,1.2,1.1,1.7,0.5l4-4.4
		c0.2-0.2,0.5-0.3,0.7-0.3h10c1.7,0,3-1.3,3-3v-12C24.8,2.6,23.5,1.3,21.8,1.3z M3.8,3.3h18c0.6,0,1,0.4,1,1v12c0,0.6-0.4,1-1,1h-10
		l-0.2,0c-0.8,0.1-1.5,0.4-2,1L7,21.1l-0.4-2.2c-0.2-0.9-1-1.6-2-1.6h-1c-0.5,0-0.8-0.4-0.8-0.8V4.3C2.8,3.7,3.3,3.3,3.8,3.3z"/>
</g>
</svg>
