<?xml version="1.0" encoding="utf-8"?>
<!-- Generator: Adobe Illustrator 24.3.0, SVG Export Plug-In . SVG Version: 6.00 Build 0)  -->
<svg version="1.1" id="Camada_1" xmlns="http://www.w3.org/2000/svg" xmlns:xlink="http://www.w3.org/1999/xlink" x="0px" y="0px"
	 viewBox="0 0 54.2 62.8" style="enable-background:new 0 0 54.2 62.8;" xml:space="preserve">
<style type="text/css">
	.st0{fill:#FFFDFD;}
</style>
<desc>Created with Sketch.</desc>
<g>
	<g>
		<path class="st0" d="M36,52.7c-0.3,4.7-4.2,8.5-9,8.5s-8.7-3.8-9-8.5H7c-3.3,0-6-2.7-6-6c0-3.3,2.7-6,6-6c0,0,0-12,0-12
			c0-8.5,5.3-15.9,13-18.7V9.7c0-3.9,3.1-7,7-7c3.9,0,7,3.1,7,7V10c7.7,2.9,13,10.3,13,18.7v12c3.3,0,6,2.7,6,6c0,3.3-2.7,6-6,6H36z
			 M32,52.7H22c0.3,2.5,2.4,4.5,5,4.5S31.7,55.3,32,52.7z M22.6,13.4c-6.8,2-11.6,8.2-11.6,15.4v12c0,2.2-1.8,4-4,4
			c-1.1,0-2,0.9-2,2c0,1.1,0.9,2,2,2h40c1.1,0,2-0.9,2-2c0-1.1-0.9-2-2-2c-2.2,0-4-1.8-4-4v-12c0-7.2-4.8-13.4-11.6-15.4L30,12.9
			V9.7c0-1.7-1.3-3-3-3c-1.7,0-3,1.3-3,3v3.2L22.6,13.4z"/>
	</g>
</g>
</svg>
