<?xml version="1.0" encoding="utf-8"?>
<!-- Generator: Adobe Illustrator 24.3.0, SVG Export Plug-In . SVG Version: 6.00 Build 0)  -->
<svg version="1.1"
	 id="Camada_1" xmlns:cc="http://creativecommons.org/ns#" xmlns:dc="http://purl.org/dc/elements/1.1/" xmlns:inkscape="http://www.inkscape.org/namespaces/inkscape" xmlns:rdf="http://www.w3.org/1999/02/22-rdf-syntax-ns#" xmlns:sodipodi="http://sodipodi.sourceforge.net/DTD/sodipodi-0.dtd" xmlns:svg="http://www.w3.org/2000/svg"
	 xmlns="http://www.w3.org/2000/svg" xmlns:xlink="http://www.w3.org/1999/xlink" x="0px" y="0px" viewBox="0 0 55.7 55.8"
	 style="enable-background:new 0 0 55.7 55.8;" xml:space="preserve">
<style type="text/css">
	.st0{fill:#FFFDFD;}
</style>
<g>
	<g>
		<path class="st0" d="M42.4,15.6c0-8-6.6-14.6-14.6-14.6S13.3,7.5,13.3,15.6s6.6,14.6,14.6,14.6S42.4,23.6,42.4,15.6z"/>
		<path class="st0" d="M33.6,33.2c-1.9,0.6-3.8,0.9-5.8,0.9s-3.9-0.3-5.8-0.9c-5.8-1.9-12.3-0.3-16.2,4.4c-2.8,3.5-4.6,8-4.6,12.8
			c0,2.7,2.2,4.9,4.9,4.9h43.2c2.7,0,4.9-2.2,4.9-4.9c0-4.8-1.7-9.3-4.6-12.8C45.8,32.8,39.4,31.2,33.6,33.2z"/>
	</g>
</g>
</svg>
