<?xml version="1.0" encoding="utf-8"?>
<!-- Generator: Adobe Illustrator 24.3.0, SVG Export Plug-In . SVG Version: 6.00 Build 0)  -->
<svg version="1.1"
	 id="Camada_1" xmlns:cc="http://creativecommons.org/ns#" xmlns:dc="http://purl.org/dc/elements/1.1/" xmlns:inkscape="http://www.inkscape.org/namespaces/inkscape" xmlns:rdf="http://www.w3.org/1999/02/22-rdf-syntax-ns#" xmlns:sodipodi="http://sodipodi.sourceforge.net/DTD/sodipodi-0.dtd" xmlns:svg="http://www.w3.org/2000/svg"
	 xmlns="http://www.w3.org/2000/svg" xmlns:xlink="http://www.w3.org/1999/xlink" x="0px" y="0px" viewBox="0 0 55.7 55.8"
	 style="enable-background:new 0 0 55.7 55.8;" xml:space="preserve">
<style type="text/css">
	.st0{fill:#DF0061;}
	.st1{fill:#FFFDFD;}
</style>
<circle class="st0" cx="27.8" cy="27.9" r="27.4"/>
<path class="st1" d="M44.5,44.9c1.6-1.6,1.1-4.7-1.1-6.9l-9.8-10l10-9.8c2.3-2.2,2.8-5.3,1.2-6.9c-1.6-1.6-4.7-1.1-6.9,1.1l-10,9.8
	l-9.8-10c-2.2-2.3-5.3-2.8-6.9-1.2s-1.1,4.7,1.1,6.9l9.8,10l-10,9.8c-2.3,2.2-2.8,5.3-1.2,6.9c1.6,1.6,4.7,1.1,6.9-1.1l10-9.8
	l9.8,10C39.8,45.9,42.8,46.5,44.5,44.9z"/>
</svg>
